# Blender v2.79 (sub 0) OBJ File: 'tabouret.blend'
# www.blender.org
mtllib Table.mtl
o Cylinder
v 0.000000 0.937500 -0.750000
v 0.000000 1.062500 -0.750000
v 0.375000 0.937500 -0.649519
v 0.375000 1.062500 -0.649519
v 0.649519 0.937500 -0.375000
v 0.649519 1.062500 -0.375000
v 0.750000 0.937500 0.000000
v 0.750000 1.062500 0.000000
v 0.649519 0.937500 0.375000
v 0.649519 1.062500 0.375000
v 0.375000 0.937500 0.649519
v 0.375000 1.062500 0.649519
v 0.000000 0.937500 0.750000
v 0.000000 1.062500 0.750000
v -0.375000 0.937500 0.649519
v -0.375000 1.062500 0.649519
v -0.649519 0.937500 0.375000
v -0.649519 1.062500 0.375000
v -0.750000 0.937500 0.000000
v -0.750000 1.062500 0.000000
v -0.649519 0.937500 -0.375000
v -0.649519 1.062500 -0.375000
v -0.375000 0.937500 -0.649519
v -0.375000 1.062500 -0.649519
vn 0.2588 0.0000 -0.9659
vn 0.7071 0.0000 -0.7071
vn 0.9659 0.0000 -0.2588
vn 0.9659 0.0000 0.2588
vn 0.7071 0.0000 0.7071
vn 0.2588 0.0000 0.9659
vn -0.2588 0.0000 0.9659
vn -0.7071 0.0000 0.7071
vn -0.9659 0.0000 0.2588
vn -0.9659 0.0000 -0.2588
vn 0.0000 1.0000 -0.0000
vn -0.7071 0.0000 -0.7071
vn -0.2588 0.0000 -0.9659
vn 0.0000 -1.0000 -0.0000
usemtl Table
s off
f 1//1 2//1 4//1 3//1
f 3//2 4//2 6//2 5//2
f 5//3 6//3 8//3 7//3
f 7//4 8//4 10//4 9//4
f 9//5 10//5 12//5 11//5
f 11//6 12//6 14//6 13//6
f 13//7 14//7 16//7 15//7
f 15//8 16//8 18//8 17//8
f 17//9 18//9 20//9 19//9
f 19//10 20//10 22//10 21//10
f 4//11 2//11 24//11 22//11 20//11 18//11 16//11 14//11 12//11 10//11 8//11 6//11
f 21//12 22//12 24//12 23//12
f 23//13 24//13 2//13 1//13
f 1//14 3//14 5//14 7//14 9//14 11//14 13//14 15//14 17//14 19//14 21//14 23//14
o Cylinder.001
v -0.400000 0.000000 -0.462500
v -0.400000 1.000000 -0.462500
v -0.368750 0.000000 -0.454127
v -0.368750 1.000000 -0.454127
v -0.345873 0.000000 -0.431250
v -0.345873 1.000000 -0.431250
v -0.337500 0.000000 -0.400000
v -0.337500 1.000000 -0.400000
v -0.345873 0.000000 -0.368750
v -0.345873 1.000000 -0.368750
v -0.368750 0.000000 -0.345873
v -0.368750 1.000000 -0.345873
v -0.400000 0.000000 -0.337500
v -0.400000 1.000000 -0.337500
v -0.431250 0.000000 -0.345873
v -0.431250 1.000000 -0.345873
v -0.454127 0.000000 -0.368750
v -0.454127 1.000000 -0.368750
v -0.462500 0.000000 -0.400000
v -0.462500 1.000000 -0.400000
v -0.454127 0.000000 -0.431250
v -0.454127 1.000000 -0.431250
v -0.431250 0.000000 -0.454127
v -0.431250 1.000000 -0.454127
vn 0.2588 0.0000 -0.9659
vn 0.7071 0.0000 -0.7071
vn 0.9659 0.0000 -0.2588
vn 0.9659 0.0000 0.2588
vn 0.7071 0.0000 0.7071
vn 0.2588 0.0000 0.9659
vn -0.2588 0.0000 0.9659
vn -0.7071 0.0000 0.7071
vn -0.9659 0.0000 0.2588
vn -0.9659 0.0000 -0.2588
vn 0.0000 1.0000 0.0000
vn -0.7071 0.0000 -0.7071
vn -0.2588 0.0000 -0.9659
vn 0.0000 -1.0000 0.0000
usemtl Table.001
s off
f 25//15 26//15 28//15 27//15
f 27//16 28//16 30//16 29//16
f 29//17 30//17 32//17 31//17
f 31//18 32//18 34//18 33//18
f 33//19 34//19 36//19 35//19
f 35//20 36//20 38//20 37//20
f 37//21 38//21 40//21 39//21
f 39//22 40//22 42//22 41//22
f 41//23 42//23 44//23 43//23
f 43//24 44//24 46//24 45//24
f 28//25 26//25 48//25 46//25 44//25 42//25 40//25 38//25 36//25 34//25 32//25 30//25
f 45//26 46//26 48//26 47//26
f 47//27 48//27 26//27 25//27
f 25//28 27//28 29//28 31//28 33//28 35//28 37//28 39//28 41//28 43//28 45//28 47//28
o Cylinder.002
v -0.400000 0.000000 0.337500
v -0.400000 1.000000 0.337500
v -0.368750 0.000000 0.345873
v -0.368750 1.000000 0.345873
v -0.345873 0.000000 0.368750
v -0.345873 1.000000 0.368750
v -0.337500 0.000000 0.400000
v -0.337500 1.000000 0.400000
v -0.345873 0.000000 0.431250
v -0.345873 1.000000 0.431250
v -0.368750 0.000000 0.454127
v -0.368750 1.000000 0.454127
v -0.400000 0.000000 0.462500
v -0.400000 1.000000 0.462500
v -0.431250 0.000000 0.454127
v -0.431250 1.000000 0.454127
v -0.454127 0.000000 0.431250
v -0.454127 1.000000 0.431250
v -0.462500 0.000000 0.400000
v -0.462500 1.000000 0.400000
v -0.454127 0.000000 0.368750
v -0.454127 1.000000 0.368750
v -0.431250 0.000000 0.345873
v -0.431250 1.000000 0.345873
vn 0.2588 0.0000 -0.9659
vn 0.7071 0.0000 -0.7071
vn 0.9659 0.0000 -0.2588
vn 0.9659 0.0000 0.2588
vn 0.7071 0.0000 0.7071
vn 0.2588 0.0000 0.9659
vn -0.2588 0.0000 0.9659
vn -0.7071 0.0000 0.7071
vn -0.9659 0.0000 0.2588
vn -0.9659 0.0000 -0.2588
vn 0.0000 1.0000 0.0000
vn -0.7071 0.0000 -0.7071
vn -0.2588 0.0000 -0.9659
vn 0.0000 -1.0000 0.0000
usemtl Table.002
s off
f 49//29 50//29 52//29 51//29
f 51//30 52//30 54//30 53//30
f 53//31 54//31 56//31 55//31
f 55//32 56//32 58//32 57//32
f 57//33 58//33 60//33 59//33
f 59//34 60//34 62//34 61//34
f 61//35 62//35 64//35 63//35
f 63//36 64//36 66//36 65//36
f 65//37 66//37 68//37 67//37
f 67//38 68//38 70//38 69//38
f 52//39 50//39 72//39 70//39 68//39 66//39 64//39 62//39 60//39 58//39 56//39 54//39
f 69//40 70//40 72//40 71//40
f 71//41 72//41 50//41 49//41
f 49//42 51//42 53//42 55//42 57//42 59//42 61//42 63//42 65//42 67//42 69//42 71//42
o Cylinder.003
v 0.400000 0.000000 0.337500
v 0.400000 1.000000 0.337500
v 0.431250 0.000000 0.345873
v 0.431250 1.000000 0.345873
v 0.454127 0.000000 0.368750
v 0.454127 1.000000 0.368750
v 0.462500 0.000000 0.400000
v 0.462500 1.000000 0.400000
v 0.454127 0.000000 0.431250
v 0.454127 1.000000 0.431250
v 0.431250 0.000000 0.454127
v 0.431250 1.000000 0.454127
v 0.400000 0.000000 0.462500
v 0.400000 1.000000 0.462500
v 0.368750 0.000000 0.454127
v 0.368750 1.000000 0.454127
v 0.345873 0.000000 0.431250
v 0.345873 1.000000 0.431250
v 0.337500 0.000000 0.400000
v 0.337500 1.000000 0.400000
v 0.345873 0.000000 0.368750
v 0.345873 1.000000 0.368750
v 0.368750 0.000000 0.345873
v 0.368750 1.000000 0.345873
vn 0.2588 0.0000 -0.9659
vn 0.7071 0.0000 -0.7071
vn 0.9659 0.0000 -0.2588
vn 0.9659 0.0000 0.2588
vn 0.7071 0.0000 0.7071
vn 0.2588 0.0000 0.9659
vn -0.2588 0.0000 0.9659
vn -0.7071 0.0000 0.7071
vn -0.9659 0.0000 0.2588
vn -0.9659 0.0000 -0.2588
vn 0.0000 1.0000 0.0000
vn -0.7071 0.0000 -0.7071
vn -0.2588 0.0000 -0.9659
vn 0.0000 -1.0000 0.0000
usemtl Table.003
s off
f 73//43 74//43 76//43 75//43
f 75//44 76//44 78//44 77//44
f 77//45 78//45 80//45 79//45
f 79//46 80//46 82//46 81//46
f 81//47 82//47 84//47 83//47
f 83//48 84//48 86//48 85//48
f 85//49 86//49 88//49 87//49
f 87//50 88//50 90//50 89//50
f 89//51 90//51 92//51 91//51
f 91//52 92//52 94//52 93//52
f 76//53 74//53 96//53 94//53 92//53 90//53 88//53 86//53 84//53 82//53 80//53 78//53
f 93//54 94//54 96//54 95//54
f 95//55 96//55 74//55 73//55
f 73//56 75//56 77//56 79//56 81//56 83//56 85//56 87//56 89//56 91//56 93//56 95//56
o Cylinder.004
v 0.400000 0.000000 -0.462500
v 0.400000 1.000000 -0.462500
v 0.431250 0.000000 -0.454127
v 0.431250 1.000000 -0.454127
v 0.454127 0.000000 -0.431250
v 0.454127 1.000000 -0.431250
v 0.462500 0.000000 -0.400000
v 0.462500 1.000000 -0.400000
v 0.454127 0.000000 -0.368750
v 0.454127 1.000000 -0.368750
v 0.431250 0.000000 -0.345873
v 0.431250 1.000000 -0.345873
v 0.400000 0.000000 -0.337500
v 0.400000 1.000000 -0.337500
v 0.368750 0.000000 -0.345873
v 0.368750 1.000000 -0.345873
v 0.345873 0.000000 -0.368750
v 0.345873 1.000000 -0.368750
v 0.337500 0.000000 -0.400000
v 0.337500 1.000000 -0.400000
v 0.345873 0.000000 -0.431250
v 0.345873 1.000000 -0.431250
v 0.368750 0.000000 -0.454127
v 0.368750 1.000000 -0.454127
vn 0.2588 0.0000 -0.9659
vn 0.7071 0.0000 -0.7071
vn 0.9659 0.0000 -0.2588
vn 0.9659 0.0000 0.2588
vn 0.7071 0.0000 0.7071
vn 0.2588 0.0000 0.9659
vn -0.2588 0.0000 0.9659
vn -0.7071 0.0000 0.7071
vn -0.9659 0.0000 0.2588
vn -0.9659 0.0000 -0.2588
vn 0.0000 1.0000 0.0000
vn -0.7071 0.0000 -0.7071
vn -0.2588 0.0000 -0.9659
vn 0.0000 -1.0000 0.0000
usemtl Table.004
s off
f 97//57 98//57 100//57 99//57
f 99//58 100//58 102//58 101//58
f 101//59 102//59 104//59 103//59
f 103//60 104//60 106//60 105//60
f 105//61 106//61 108//61 107//61
f 107//62 108//62 110//62 109//62
f 109//63 110//63 112//63 111//63
f 111//64 112//64 114//64 113//64
f 113//65 114//65 116//65 115//65
f 115//66 116//66 118//66 117//66
f 100//67 98//67 120//67 118//67 116//67 114//67 112//67 110//67 108//67 106//67 104//67 102//67
f 117//68 118//68 120//68 119//68
f 119//69 120//69 98//69 97//69
f 97//70 99//70 101//70 103//70 105//70 107//70 109//70 111//70 113//70 115//70 117//70 119//70
